<svg id="Icons" xmlns="http://www.w3.org/2000/svg" viewBox="0 0 75 75"><defs><style>.cls-1{fill:#231f20;}</style></defs><title>darksiders3Icon</title><polygon class="cls-1" points="43.05 51.9 43.05 10.14 45.07 7.72 37.96 0 30.84 7.72 32.87 10.14 32.87 51.9 30.55 56.22 37.96 75 45.36 56.22 43.05 51.9"/><polygon class="cls-1" points="24.84 48.48 24.84 17.79 26.82 15.42 20.21 8.81 13.2 15.82 14.67 17.29 14.67 48.19 13.2 49.66 20.22 66.03 27.2 51.44 24.84 48.48"/><polygon class="cls-1" points="51.07 48.48 51.07 17.79 49.09 15.42 55.7 8.81 62.72 15.82 61.25 17.29 61.25 48.19 62.72 49.66 55.69 66.03 48.71 51.44 51.07 48.48"/></svg>