<svg id="Icons" xmlns="http://www.w3.org/2000/svg" viewBox="0 0 75 75"><defs><style>.cls-1{fill:#f1b709;}.cls-2{fill:#231f20;}</style></defs><title>overwatchIcon</title><path class="cls-1" d="M37.5,10.28a27,27,0,0,1,15.8,5.07L60.65,8A37.46,37.46,0,0,0,14,8.32l7.32,7.32A27.14,27.14,0,0,1,37.5,10.28Z"/><path class="cls-2" d="M63.39,10.39l-7.27,7.27a27.19,27.19,0,0,1,4.94,33.47L45.76,36.38,39.28,20.71V44.64l14.59,14.6a27.19,27.19,0,0,1-32.74,0l14.59-14.6V20.71L29.24,36.38,13.94,51.13A27.2,27.2,0,0,1,18.51,18l-7.27-7.27a37.5,37.5,0,1,0,52.15-.35Z"/></svg>