<svg id="Icons" xmlns="http://www.w3.org/2000/svg" viewBox="0 0 75 75"><defs><style>.cls-1{fill:#231f20;}</style></defs><title>slimeRancherIcon</title><path class="cls-1" d="M40.43,5.51c7.31,0,15,5.18,21.13,14.22C67.38,28.31,71,39.29,71,48.37c0,19.06-26.76,21.12-38.27,21.12-8.6,0-15.81-2.39-20.84-6.93S4,51,4,42.66C4,25.3,23.41,5.51,40.43,5.51m0-4C21.34,1.51,0,22.78,0,42.66S13.64,73.49,32.73,73.49,75,68.24,75,48.37,59.52,1.51,40.43,1.51Z"/><path class="cls-1" d="M35.68,40.13c-8.24-.68-8.46-5.89-10-4.94-3.88,2.43-6.1,5.3-6.1,9.92,0,7.35,7.5,14,16.63,14s14.2-7.68,14.2-15a9.24,9.24,0,0,0-2.56-6.13C46.68,36.54,44.58,40.86,35.68,40.13Zm.18,17.13c-5.18,0-9.13-2.85-9.13-5.14S30.68,48,35.86,48s9.37,2.33,9.37,4.61S41,57.26,35.86,57.26Z"/><path class="cls-1" d="M18.17,22.66c-1.57-.77-4.17,2.05-5.64,4.79-1.77,3.29-1.29,5.27.27,6s4.5-1,5.87-3.8S19.73,23.43,18.17,22.66Zm-1.32,3.63A1.29,1.29,0,0,1,15.71,25a1.53,1.53,0,0,1,1.4-1.34,1.16,1.16,0,0,1,1.14,1.2A1.66,1.66,0,0,1,16.85,26.29Z"/><path class="cls-1" d="M59.9,29.51c-1.45.18-2.64,2.46-2.31,5.05s1.8,5.51,3.26,5.52c2.17,0,2.69-3.42,2.36-6S61.59,29.28,59.9,29.51Zm.36,3.18a1.36,1.36,0,0,1-1.36-1.32c0-.73.29-1.5,1-1.5a1.43,1.43,0,0,1,1.49,1.27C61.41,31.87,61,32.69,60.26,32.69Z"/></svg>