<svg id="Layer_1" data-name="Layer 1" xmlns="http://www.w3.org/2000/svg" viewBox="0 0 150 150"><defs><style>.cls-1{fill:#231f20;}.cls-2{fill:none;stroke:#231f20;stroke-linecap:round;stroke-miterlimit:10;stroke-width:8px;}</style></defs><title>photoIcon</title><path class="cls-1" d="M130.83,38A11.18,11.18,0,0,1,142,49.17V136a6,6,0,0,1-6,6H14a6,6,0,0,1-6-6V44a6,6,0,0,1,6-6H130.83m0-8H14A14,14,0,0,0,0,44v92a14,14,0,0,0,14,14H136a14,14,0,0,0,14-14V49.17A19.17,19.17,0,0,0,130.83,30Z"/><path class="cls-1" d="M47,22a4,4,0,0,1,4,4v4H25V26a4,4,0,0,1,4-4H47m0-8H29A12,12,0,0,0,17,26V38H59V26A12,12,0,0,0,47,14Z"/><path class="cls-1" d="M75,60A30,30,0,1,1,45,90,30,30,0,0,1,75,60m0-8a38,38,0,1,0,38,38A38,38,0,0,0,75,52Z"/><path class="cls-1" d="M75,60A30,30,0,1,1,45,90,30,30,0,0,1,75,60m0-8a38,38,0,1,0,38,38A38,38,0,0,0,75,52Z"/><path class="cls-2" d="M71.87,72.27a18,18,0,0,1,20.86,14.6"/></svg>