<svg id="Layer_1" data-name="Layer 1" xmlns="http://www.w3.org/2000/svg" viewBox="0 0 150 150"><defs><style>.cls-1{fill:#231f20;}</style></defs><title>reveIcon</title><path class="cls-1" d="M129.74,99.84c-39.53-3.42-96.46,7.69-98.86,8.16a4.06,4.06,0,0,0-3.19,4.76c.38,1.93,1.22,4.22,3.11,4.22.32-.09.27-.62,1.65-1,.56-.17,43.71-14.23,96.59-8a4,4,0,0,0,4.38-3.68A4,4,0,0,0,129.74,99.84Z"/><path class="cls-1" d="M142.68,78.42C148.19,75,150,72.3,150,70.23s-1.12-3.53-3-5.16c-2.41-3.62-4.22-4.4-6.54-4.4-5.86,0-14.3,5.17-19.13,11.55-3.7,5-4.91,10.25-3.62,13.18a14.88,14.88,0,0,0,6.46,7.06,11.25,11.25,0,0,0,5.43,1.12A19.29,19.29,0,0,0,141.3,89.1a5,5,0,0,0,2-2.58,7.72,7.72,0,0,0,.34-2.16c0-.34-.08-.6-.25-.6s-.52.43-1.9,1.29a17.66,17.66,0,0,1-9.3,2.93,11.63,11.63,0,0,1-3.62-.52,13.31,13.31,0,0,1,.17-3.18A61.61,61.61,0,0,0,142.68,78.42Zm2.06-10.94c.18,2.5-1,4.74-4.82,7.49a44.52,44.52,0,0,1-9.65,5.17C133.2,74.2,139.4,68.77,144.74,67.48Z"/><path class="cls-1" d="M88.32,91.69A18,18,0,0,0,97,94.27h.15c1.21-.05,2.13-.74,3.21-2.32,7.93-11.88,13.44-19,20.85-26.79a5,5,0,0,0,1.63-2.41c0-.43-.25-.6-.6-1.38-.17-.43-.43-.6-.69-.6s-.77.26-2,1.38A241.78,241.78,0,0,0,98.31,84.79c2.76-9.21,6.46-14.9,6.46-19.21,0-2.5-1.29-3.44-4-4a22.3,22.3,0,0,0-4.13-.86c-.52,0-.86.17-1.21.86-1.81,4-8,17.32-9.22,22.32C85,88.33,86.6,90.48,88.32,91.69Z"/><path class="cls-1" d="M70.83,55.76a102.67,102.67,0,0,1,12-4.31c.43,1.12.94,2.33,1.46,3.45s1.12,1.55,1.81,1.55a7.58,7.58,0,0,0,2.33-.52c.68-.25.86-.51.6-1.46-.78-3.36-1.64-5.95-2.59-9-.6-2-.94-2.33-2.15-1.9-4.48,1.55-7.93,2.85-10,3.79a5.49,5.49,0,0,0-3,3,23.8,23.8,0,0,0-1.89,5.34C69.37,56.11,69.8,56.19,70.83,55.76Z"/><path class="cls-1" d="M78.93,78.42c5.51-3.45,7.32-6.12,7.32-8.19s-1.12-3.53-3-5.16c-2.42-3.62-4.22-4.4-6.55-4.4-5.86,0-14.3,5.17-19.13,11.55-3.7,5-4.91,10.25-3.62,13.18a14.85,14.85,0,0,0,6.47,7.06,11.18,11.18,0,0,0,5.42,1.12A19.29,19.29,0,0,0,77.55,89.1a5,5,0,0,0,2-2.58,7.8,7.8,0,0,0,.35-2.16c0-.34-.09-.6-.26-.6s-.52.43-1.9,1.29A17.66,17.66,0,0,1,68.42,88a11.68,11.68,0,0,1-3.62-.52A13.31,13.31,0,0,1,65,84.28,61.61,61.61,0,0,0,78.93,78.42ZM81,67.48c.17,2.5-1,4.74-4.83,7.49a44.52,44.52,0,0,1-9.65,5.17C69.45,74.2,75.66,68.77,81,67.48Z"/><path class="cls-1" d="M44.55,95.13c2.24-3.1,3.19-3.27,3.19-5.68A11.69,11.69,0,0,0,46.54,85c-1.73-4.14-4-8.79-6.38-13.44,15.16-4.31,26-14.56,26-24.64a11,11,0,0,0-2.93-7.67C58.94,34.65,53.08,33,45,33a54.66,54.66,0,0,0-13.1,1.55,1.66,1.66,0,0,0-1,2.15A42.33,42.33,0,0,0,33,44a2.24,2.24,0,0,0,.43.52C23.28,57.57,10.52,76.44.7,92.2c-.86,1.3-.94,2.59-.17,2.59a39.59,39.59,0,0,0,7.15-1c3.71-.77,5.6-1.89,8.62-5.94,4.13-5.51,7.75-10.6,11.2-15.34,7.23,11,11.8,18.53,14,23.7C42.06,97.2,43.35,96.68,44.55,95.13ZM52.74,41.8c4.13,0,7.06.78,8.87,2.5C60.23,52.83,44.81,62,34,63.08,37.58,58,40.85,53.09,44.3,48c1.2-1.73.34-2.85-2-4.91A50,50,0,0,1,52.74,41.8Z"/></svg>