<svg id="Layer_1" data-name="Layer 1" xmlns="http://www.w3.org/2000/svg" viewBox="0 0 150 150"><defs><style>.cls-1{fill:#231f20;}</style></defs><title>summitIcon</title><path class="cls-1" d="M71.91,5.86,70.42,7.3.87,74.4A2.84,2.84,0,0,0,1.58,79L29.46,92.84,5.21,142.54a2,2,0,0,0,2.57,2.67L74.91,115.4l.09,0,.09,0,67.13,29.81a2,2,0,0,0,2.57-2.67l-24.25-49.7L148.42,79a2.84,2.84,0,0,0,.71-4.59L79.58,7.3,78.09,5.86h0a4.46,4.46,0,0,0-6.18,0h0m45.32,80.21h0L87.74,25.63,139.12,75.2,117.23,86.07h0m3.31,6.77h0M10.88,75.2,62.26,25.63,32.77,86.07Zm7.78,56.94,17.55-36,29.94,14.87ZM75,107h0L39.51,89.42h0L75,16.69h0l35.49,72.73L75,107Zm38.79-10.86,17.55,36L83.85,111.05l29.94-14.87"/></svg>