<svg id="Layer_1" data-name="Layer 1" xmlns="http://www.w3.org/2000/svg" viewBox="0 0 150 150"><defs><style>.cls-1{fill:#231f20;}</style></defs><title>zodiacIcon</title><path class="cls-1" d="M75,7.5A67.5,67.5,0,1,1,7.5,75,67.58,67.58,0,0,1,75,7.5M75,0a75,75,0,1,0,75,75A75,75,0,0,0,75,0Z"/><path class="cls-1" d="M48.56,96.65a21.57,21.57,0,0,1-16-7.1A21.65,21.65,0,0,1,56,54.66a18.15,18.15,0,0,1,10.21,9.65,12.54,12.54,0,0,0,6.25,6.26L75,71.71l2.51-1.14a12.52,12.52,0,0,0,6.25-6.25h0A18.22,18.22,0,0,1,94.3,54.54a21.65,21.65,0,1,1,0,40.92,18.22,18.22,0,0,1-10.56-9.78,12.52,12.52,0,0,0-6.25-6.25L75,78.29l-2.52,1.14a12.5,12.5,0,0,0-6.24,6.25A18.18,18.18,0,0,1,56,95.34,21.89,21.89,0,0,1,48.56,96.65Zm0-37.3A15.59,15.59,0,0,0,37,64.48,15.65,15.65,0,0,0,54,89.7a12.12,12.12,0,0,0,6.78-6.48A18.57,18.57,0,0,1,68,75a18.54,18.54,0,0,1-7.27-8.2A12.14,12.14,0,0,0,54,60.3,16.07,16.07,0,0,0,48.57,59.35ZM81.93,75a18.56,18.56,0,0,1,7.28,8.2,12.19,12.19,0,0,0,7,6.59,15.65,15.65,0,1,0,0-29.57,12.14,12.14,0,0,0-7,6.58h0A18.56,18.56,0,0,1,81.93,75Zm4.54-9.44h0Z"/><circle class="cls-1" cx="75" cy="48.03" r="3.75"/><circle class="cls-1" cx="75" cy="101.97" r="3.75"/><circle class="cls-1" cx="75" cy="114.4" r="6"/></svg>