<svg xmlns="http://www.w3.org/2000/svg" viewBox="0 0 75 75"><defs><style>.cls-1{fill:#231f20;}</style></defs><title>businessIcon</title><g id="Layer_1" data-name="Layer 1"><path class="cls-1" d="M63.7,21H11.3a3.88,3.88,0,0,0-3.88,3.88v8.94a9.08,9.08,0,0,0,3.28,7V63.58a39.36,39.36,0,0,0,3,2.77v-24a7.73,7.73,0,0,0,1.8.33V57h22a2,2,0,0,0,2-2V41a8.6,8.6,0,0,0,12.35-2.16,8.57,8.57,0,0,0,6.82,3.87h.27a8.85,8.85,0,0,0,2.36-.33V66.35a39.36,39.36,0,0,0,3-2.77V40.87q.35-.27.66-.57a8.6,8.6,0,0,0,2.62-6.21V24.85A3.88,3.88,0,0,0,63.7,21ZM61.3,39.22a5.64,5.64,0,0,1-2.54.51A5.42,5.42,0,0,1,55,38a6.13,6.13,0,0,1-1.57-3,6.89,6.89,0,0,1-.12-1.21V24H63.7a.87.87,0,0,1,.88.88v9.24a5.8,5.8,0,0,1-.28,1.77,5.48,5.48,0,0,1-1.43,2.28A5.94,5.94,0,0,1,61.3,39.22Zm-16.65.52A5.63,5.63,0,0,1,40.58,38a5.71,5.71,0,0,1-1.08-1.6,5.84,5.84,0,0,1-.5-2.31V24H50.29V34.09a5.5,5.5,0,0,1-.08.91,5.66,5.66,0,0,1-5.56,4.74ZM10.7,35.63a6.21,6.21,0,0,1-.28-1.84V24.85A.87.87,0,0,1,11.3,24H21.71V34.09a5.5,5.5,0,0,1-.08.91,5.61,5.61,0,0,1-1.5,3l-.14.14a5.63,5.63,0,0,1-1.49,1,5.58,5.58,0,0,1-2.61.55l-.39,0a5.33,5.33,0,0,1-1.8-.52A5.94,5.94,0,0,1,10.7,35.63ZM36,34.09a5.5,5.5,0,0,1-.08.91,5.64,5.64,0,0,1-11.13,0,5.5,5.5,0,0,1-.08-.91V24H36ZM36.5,54h-18V42.39a8.62,8.62,0,0,0,3.58-2.09A9.44,9.44,0,0,0,23.21,39a8.63,8.63,0,0,0,13.29,1.2Z"/><path class="cls-1" d="M41,72H23.08A37.22,37.22,0,0,0,37.5,74.88c1.17,0,2.33-.06,3.48-.16A37.38,37.38,0,0,0,51.92,72l.28-.12H44V46.77H55.21V70.43q1.55-.83,3-1.8V43.77H41Z"/></g><g id="Outlines"><path class="cls-1" d="M37.5,3A34.5,34.5,0,1,1,3,37.5,34.54,34.54,0,0,1,37.5,3m0-3A37.5,37.5,0,1,0,75,37.5,37.5,37.5,0,0,0,37.5,0Z"/></g></svg>