<svg xmlns="http://www.w3.org/2000/svg" xmlns:xlink="http://www.w3.org/1999/xlink" viewBox="0 0 75 75"><defs><style>.cls-1{fill:none;}.cls-2{clip-path:url(#clip-path);}.cls-3{fill:#231f20;}</style><clipPath id="clip-path"><circle class="cls-1" cx="37.5" cy="37.5" r="37.5"/></clipPath></defs><title>graphicIcon</title><g id="Layer_1" data-name="Layer 1"><g class="cls-2"><path class="cls-3" d="M53.17-.32,56.3,17.41,13,25.05,9.84,7.32,53.17-.32M54-3.48a2,2,0,0,0-.34,0l-45.3,8A2,2,0,0,0,6.72,6.86l3.47,19.69a2,2,0,0,0,2,1.66l.35,0,45.3-8a2,2,0,0,0,1.62-2.32L56-1.82a2,2,0,0,0-2-1.66Z"/><path class="cls-3" d="M36.6,55.41l2.95,16.74L21.83,75.27l-3-16.74L36.6,55.41m.81-3.16-.35,0L17.37,55.75a2,2,0,0,0-1.63,2.32L19,76.78a2,2,0,0,0,2,1.65,2,2,0,0,0,.34,0l19.7-3.47a2,2,0,0,0,1.62-2.32L39.38,53.9a2,2,0,0,0-2-1.65Z"/><path class="cls-3" d="M62.2,50.89l3,16.74L47.43,70.76,44.48,54,62.2,50.89M63,47.73a2,2,0,0,0-.34,0L43,51.24a2,2,0,0,0-1.62,2.31l3.3,18.71a2,2,0,0,0,2,1.66l.35,0,19.69-3.48a2,2,0,0,0,1.62-2.31L65,49.39a2,2,0,0,0-2-1.66Z"/><rect class="cls-3" x="13.89" y="40.36" width="50" height="10" rx="2" transform="translate(-7.29 7.44) rotate(-10)"/><rect class="cls-3" x="11.96" y="29.82" width="18" height="12" rx="2" transform="matrix(0.98, -0.17, 0.17, 0.98, -5.9, 4.18)"/><rect class="cls-3" x="30.79" y="25.38" width="30" height="3" transform="translate(-3.97 8.36) rotate(-10)"/><rect class="cls-3" x="31.57" y="29.81" width="30" height="3" transform="translate(-4.73 8.56) rotate(-10)"/><rect class="cls-3" x="32.47" y="35.63" width="14" height="3" transform="translate(-5.85 7.42) rotate(-10)"/><path class="cls-3" d="M12.76,81.44-.79,4.63l63-11.12L75.79,70.33ZM2.69,7.06,15.19,78,72.31,67.89,59.81-3Z"/></g></g><g id="Outlines"><path class="cls-3" d="M37.5,3A34.5,34.5,0,1,1,3,37.5,34.54,34.54,0,0,1,37.5,3m0-3A37.5,37.5,0,1,0,75,37.5,37.5,37.5,0,0,0,37.5,0Z"/></g></svg>