<svg xmlns="http://www.w3.org/2000/svg" viewBox="0 0 75 75"><defs><style>.cls-1{fill:#231f20;}</style></defs><title>logoIcon</title><g id="Layer_1" data-name="Layer 1"><path class="cls-1" d="M48.4,21.67h4.88a4.5,4.5,0,1,0,0-3H42v-3H33v3H21.72a4.5,4.5,0,1,0,0,3H26.6a21.56,21.56,0,0,0-10.12,14H13v9h9v-9H19.58A18.5,18.5,0,0,1,33,22.25v2.42h9V22.25A18.5,18.5,0,0,1,55.42,35.67H53v9h9v-9H58.52A21.56,21.56,0,0,0,48.4,21.67Zm7.6-1.5a1.5,1.5,0,1,1,1.5,1.5A1.5,1.5,0,0,1,56,20.17Zm-37,0a1.5,1.5,0,1,1-1.5-1.5A1.5,1.5,0,0,1,19,20.17Zm40,18.5v3H56v-3h3Zm-21.5-17H36v-3h3v3ZM19,40.17v1.5H16v-3h3Z"/><path class="cls-1" d="M40.06,35.67H34.94l-2.57,4.5L28,47.89,30.77,60v8.33H44.23V60l2.82-12.11-4.42-7.72Zm1.17,29.66H33.77v-4h7.46Zm.31-7H33.46l-2.32-10,4.68-8.19.18-.31V48.5h3V39.86l.18.31,4.68,8.19Z"/></g><g id="Outlines"><path class="cls-1" d="M37.5,3A34.5,34.5,0,1,1,3,37.5,34.54,34.54,0,0,1,37.5,3m0-3A37.5,37.5,0,1,0,75,37.5,37.5,37.5,0,0,0,37.5,0Z"/></g></svg>