<svg id="Layer_1" data-name="Layer 1" xmlns="http://www.w3.org/2000/svg" xmlns:xlink="http://www.w3.org/1999/xlink" viewBox="0 0 85.92 70"><defs><style>.cls-1,.cls-3{fill:none;}.cls-2{clip-path:url(#clip-path);}.cls-3{stroke:#231f20;stroke-miterlimit:10;stroke-width:3px;}.cls-4{clip-path:url(#clip-path-2);}.cls-5{fill:#fff;}</style><clipPath id="clip-path"><circle class="cls-1" cx="87.99" cy="-104.86" r="85.34"/></clipPath><clipPath id="clip-path-2"><circle class="cls-1" cx="35" cy="35" r="33.95"/></clipPath></defs><title>Logo_Text</title><g class="cls-2"><rect class="cls-3" x="-13.13" y="-50.44" width="192.48" height="77.34" transform="translate(0.88 5.1) rotate(-3.54)"/><rect class="cls-3" x="-59.27" y="-65.54" width="225.81" height="77.34" transform="translate(-6.35 -26.72) rotate(26.47)"/></g><g class="cls-4"><path class="cls-5" d="M70.88,20.5,7,13.7l3.38-31.78,63.9,6.8ZM8.31,12.64l61.51,6.54L73-10.22,11.44-16.77Z"/><path class="cls-5" d="M7.06,57.87-22.61,46l.23-.55L1.31-13.66,31-1.77l-.22.55ZM-21,45.31l27.44,11,23-57.42L2-12.11Z"/><path class="cls-5" d="M-4.76,90.37l-2-31.89,77.61-4.8,2,31.9Zm-.7-30.77,1.82,29.51,75.23-4.65L69.76,55Z"/><path class="cls-5" d="M55,100.61l-.53-.26-80.95-40.3,14.25-28.61.53.27L69.19,72Zm-79.87-41.1L54.42,99,67.59,72.54-11.75,33Z"/></g><path class="cls-5" d="M35,0A35,35,0,1,0,64.93,53.15L65,53l-2.3-1.4-.09.15A32.31,32.31,0,1,1,67.31,35v.18H70V35A35,35,0,0,0,35,0Z"/><path class="cls-5" d="M23.88,31V20.47H30.8v2.26H26.57V24.6h3.62v2.15H26.57v2H31V31Z"/><path class="cls-5" d="M36.9,20.47c2.53,0,4.27,1.22,4.27,3.59a3.13,3.13,0,0,1-1.93,3.05L41.36,31h-2.8l-1.7-3.48H35.69V31H33.06V20.47Zm-1.21,2.26v2.68H37a1.25,1.25,0,0,0,1.42-1.35A1.27,1.27,0,0,0,37,22.73Z"/><path class="cls-5" d="M43.34,31V20.47H46V31Z"/><path class="cls-5" d="M51.34,25.12,55,20.47h3.14L54.45,25,58.17,31h-3l-2.56-4.36L51.34,28.2V31H48.65V20.47h2.69Z"/><path class="cls-5" d="M27.12,43.83l-.69-.57v5.37H23.88V37.92h.06l5.15,4.68,5.15-4.68h.07V48.63H31.73V43.26l-.68.57c-.66.63-1.3,1.26-2,1.88Z"/><path class="cls-5" d="M41,37.92h.13l5.25,10.71h-2.8L42.87,47H39.32l-.73,1.61h-2.8Zm1.07,7.29c-.36-.84-.79-1.88-1-2.52-.14.35-.71,1.85-1,2.52Z"/><path class="cls-5" d="M51.76,38.07c2.53,0,4.27,1.21,4.27,3.59a3.13,3.13,0,0,1-1.94,3.05l2.13,3.92h-2.8l-1.7-3.48H50.54v3.48H47.92V38.07Zm-1.22,2.26V43h1.35a1.26,1.26,0,0,0,1.43-1.35,1.27,1.27,0,0,0-1.44-1.33Z"/><path class="cls-5" d="M62.84,40.33v8.3h-2.7v-8.3H57.32V38.07h8.33v2.26Z"/><path class="cls-5" d="M76.48,44.71c0,2.48-1.69,4.12-4.6,4.12s-4.59-1.64-4.59-4.12V38.07H70v6.35a1.9,1.9,0,1,0,3.8,0V38.07h2.7Z"/><path class="cls-5" d="M78.63,48.26V45.68a6.62,6.62,0,0,0,2.49.76,6,6,0,0,0,.84,0c.87-.06,1.35-.3,1.35-.74s-.66-.83-2-1.32c-1.78-.67-2.92-1.4-2.92-3.34s1.6-3.2,4-3.2a7.86,7.86,0,0,1,2.82.5v2.48a5.16,5.16,0,0,0-2.6-.66c-1,0-1.58.34-1.58.87s.62.83,1.85,1.33c1.77.7,3,1.45,3,3.33s-1.47,3.12-4.09,3.12A8.68,8.68,0,0,1,78.63,48.26Z"/></svg>