<svg xmlns="http://www.w3.org/2000/svg" viewBox="0 0 75 75"><defs><style>.cls-1{fill:#231f20;}</style></defs><title>personalIcon</title><g id="Layer_1" data-name="Layer 1"><path class="cls-1" d="M12.84,52.91a5,5,0,0,0-5,5v2.53a40.91,40.91,0,0,0,3,3.43v-6a2,2,0,0,1,2-2H26.72a15.59,15.59,0,0,1-5.37-3Z"/><path class="cls-1" d="M62.16,52.91H53.65a15.59,15.59,0,0,1-5.37,3H62.16a2,2,0,0,1,2,2v6a40.91,40.91,0,0,0,3-3.43V57.91A5,5,0,0,0,62.16,52.91Z"/><path class="cls-1" d="M57.16,41V29a13.69,13.69,0,0,0-8.83-12.78,9.6,9.6,0,0,0,.17-1.58,3.23,3.23,0,0,0-4.79-2.92,34.57,34.57,0,0,1-7.34,2.43c-1.7.43-3.43.73-5.27,1.05-.68.12-1.37.23-2.05.36A13.67,13.67,0,0,0,17.84,29V41A13.71,13.71,0,0,0,31.5,54.67h12A13.71,13.71,0,0,0,57.16,41ZM31.5,51.67A10.7,10.7,0,0,1,20.84,41V29a10.66,10.66,0,0,1,.67-3.71,10.54,10.54,0,0,1,.79-1.66,9.81,9.81,0,0,1,1.06-1.49,10.74,10.74,0,0,1,2.77-2.34A10.1,10.1,0,0,1,27.79,19a10,10,0,0,1,1.8-.5c2.52-.46,5-.82,7.52-1.45a41,41,0,0,0,8-2.7.21.21,0,0,1,.12,0,.24.24,0,0,1,.24.25A5.61,5.61,0,0,1,45.31,16a4,4,0,0,1-.31.83,2.38,2.38,0,0,1-.23.41,2.55,2.55,0,0,1-.29.38.6.6,0,0,0-.12.24.5.5,0,0,0,.17.46.51.51,0,0,0,.25.1A10.7,10.7,0,0,1,54.16,29V41A10.7,10.7,0,0,1,43.5,51.67Z"/><path class="cls-1" d="M41.87,43.26H33a.9.9,0,0,0-.9,1.05,5.44,5.44,0,0,0,10.63,0A.9.9,0,0,0,41.87,43.26Z"/><path class="cls-1" d="M29.46,29.78a2.66,2.66,0,0,0-2.66,2.67,2.63,2.63,0,0,0,.46,1.49,5.21,5.21,0,0,1,2.2-.49,5.29,5.29,0,0,1,2.21.49,2.63,2.63,0,0,0,.46-1.49A2.67,2.67,0,0,0,29.46,29.78Z"/><path class="cls-1" d="M45.45,29.78a2.66,2.66,0,0,0-2.66,2.67,2.63,2.63,0,0,0,.46,1.49,5.21,5.21,0,0,1,4.41,0,2.63,2.63,0,0,0,.46-1.49A2.66,2.66,0,0,0,45.45,29.78Z"/></g><g id="Outlines"><path class="cls-1" d="M37.5,3A34.5,34.5,0,1,1,3,37.5,34.54,34.54,0,0,1,37.5,3m0-3A37.5,37.5,0,1,0,75,37.5,37.5,37.5,0,0,0,37.5,0Z"/></g></svg>