<svg xmlns="http://www.w3.org/2000/svg" viewBox="0 0 500 500"><defs><style>.cls-1{fill:#fbded1;}.cls-2{fill:#3f3d3c;}.cls-3{fill:#f4cebe;}.cls-4{fill:#f9b8a0;}.cls-5{fill:#515140;}.cls-6{fill:#f4a187;}.cls-7{fill:#442e27;}.cls-8{fill:#3a2621;}.cls-9{fill:#472f29;}</style></defs><title>portrait</title><g id="Layer_4" data-name="Layer 4"><path class="cls-1" d="M68.56,500S34.05,328.82,249.42,325.93c0,0,202.38-9.61,180.74,174.07Z"/><path class="cls-2" d="M194.21,331.09s7.13,50.62,54.94,49.18,60-45.43,61.25-46.64S450.23,353.34,431.78,500H68.56S41,359.81,194.21,331.09Z"/><rect class="cls-3" x="208.06" y="238.79" width="88.49" height="129.46" rx="44.24"/><ellipse class="cls-4" cx="366.81" cy="174.83" rx="28.63" ry="28.48"/><ellipse class="cls-4" cx="137.79" cy="174.83" rx="28.63" ry="28.48"/><path class="cls-1" d="M252.3,318.89h0c-36.12,0-114.51-51.27-114.51-114.51V138.24c0-82.06,51.27-114.51,114.51-114.51h0A114.51,114.51,0,0,1,366.81,138.24v66.14C366.81,267.62,294.59,318.89,252.3,318.89Z"/><rect class="cls-4" x="234.08" y="168.28" width="36.44" height="51.78"/><ellipse class="cls-5" cx="192.71" cy="156.17" rx="14.31" ry="14.24"/><ellipse class="cls-5" cx="308.9" cy="156.17" rx="14.31" ry="14.24"/><path class="cls-6" d="M194.21,238.79a62.87,62.87,0,0,0,116.19,0Z"/><path class="cls-7" d="M163.39,65.84c.06-1.08,2.84-22.11,25.57-3.78s105.33,18.6,123.64,1.62,27.6,2.16,27.6,2.16-4.11,49.23,13.81,65.59c21.33,19.48,10.75,62.75,10.75,62.75h7.7l.79-37.21S389.84,40.49,329.59,27c0,0-137.1-61.45-171.25,1.1C128.65,62.06,126,75.93,133,160.94v32.73h5.89s-7-49.64,12.49-62C161.13,127.85,163.39,65.84,163.39,65.84Z"/><path class="cls-8" d="M175,55.16s77,44.73,144.62,3Z"/><path class="cls-9" d="M330.53,54.49s-31,20.67-55.31,16.67c0,0-56.26-7.74-83-3.48-9.5,1.51-11.33,5.25.33,10.24,0,0-42.32,7.69-23.84-22.08s80.41-11.43,80.41-11.43S299.08,61.48,330.53,54.49Z"/><path class="cls-7" d="M223.84,181.37h-67a7.07,7.07,0,0,1-7.06-7.07V147.58a7.07,7.07,0,0,1,7.06-7.06h67a7.07,7.07,0,0,1,7.06,7.06V174.3A7.07,7.07,0,0,1,223.84,181.37Zm-67-38a4.24,4.24,0,0,0-4.23,4.24V174.3a4.24,4.24,0,0,0,4.23,4.24h67a4.24,4.24,0,0,0,4.24-4.24V147.58a4.24,4.24,0,0,0-4.24-4.24Z"/><path class="cls-7" d="M348.34,181.37h-67a7.07,7.07,0,0,1-7.06-7.07V147.58a7.07,7.07,0,0,1,7.06-7.06h67a7.07,7.07,0,0,1,7.06,7.06V174.3A7.07,7.07,0,0,1,348.34,181.37Zm-67-38a4.24,4.24,0,0,0-4.24,4.24V174.3a4.24,4.24,0,0,0,4.24,4.24h67a4.24,4.24,0,0,0,4.23-4.24V147.58a4.24,4.24,0,0,0-4.23-4.24Z"/><path class="cls-7" d="M275.11,161.05c-25.31-12.43-44.66-.21-44.85-.08l-1.54-2.37c.84-.54,20.84-13.24,47.63-.08Z"/></g></svg>